<svg width="51" height="54" viewBox="0 0 51 54" fill="none" xmlns="http://www.w3.org/2000/svg">
<g opacity="0.5">
<g opacity="0.8">
<path opacity="0.8" d="M10.8132 24.0294L34.955 1.09312C35.7109 0.390516 36.7047 -1.65111e-07 37.7367 -1.30784e-07C38.7687 -9.6456e-08 39.7624 0.390517 40.5183 1.09312C40.8812 1.43057 41.1706 1.83922 41.3685 2.2935C41.5663 2.74778 41.6685 3.23796 41.6685 3.73347C41.6685 4.22897 41.5663 4.71915 41.3685 5.17343C41.1706 5.62771 40.8812 6.03636 40.5183 6.37382L19.1823 26.6697L40.5183 46.9656C40.8812 47.3031 41.1706 47.7117 41.3684 48.166C41.5663 48.6203 41.6685 49.1105 41.6685 49.606C41.6685 50.1015 41.5663 50.5917 41.3684 51.046C41.1706 51.5002 40.8812 51.9088 40.5183 52.2463C39.7627 52.9474 38.7701 53.3369 37.7393 53.3369C36.7086 53.3369 35.7159 52.9474 34.9603 52.2463L10.8186 29.31C10.4557 28.9726 10.1664 28.564 9.96847 28.1097C9.77059 27.6554 9.66846 27.1652 9.66846 26.6697C9.66846 26.1742 9.77059 25.684 9.96847 25.2297C10.1664 24.7754 10.4557 24.3668 10.8186 24.0294L10.8132 24.0294Z" fill="#FFFFFE"/>
</g>
</g>
</svg>
