<svg width="10" height="6" viewBox="0 0 10 6" fill="none" xmlns="http://www.w3.org/2000/svg">
<g id="Group 1">
<path id="Path 115" d="M4.50005 5.78462L0.20005 1.25862C0.0683297 1.1169 -0.00488281 0.930594 -0.00488281 0.737118C-0.00488281 0.543641 0.0683297 0.357332 0.20005 0.215618C0.263316 0.147595 0.339928 0.0933419 0.425095 0.0562439C0.510261 0.0191459 0.602157 0 0.695053 0C0.787949 0 0.879845 0.0191459 0.965012 0.0562439C1.05018 0.0933419 1.12679 0.147595 1.19006 0.215618L4.99506 4.21562L8.80006 0.215618C8.86332 0.147595 8.93993 0.0933419 9.02509 0.0562439C9.11026 0.0191459 9.20216 0 9.29505 0C9.38795 0 9.47985 0.0191459 9.56502 0.0562439C9.65018 0.0933419 9.72679 0.147595 9.79005 0.215618C9.92149 0.357277 9.99452 0.543377 9.99452 0.736618C9.99452 0.929859 9.92149 1.11596 9.79005 1.25762L5.49005 5.78362C5.42679 5.85164 5.35018 5.90589 5.26501 5.94299C5.17985 5.98009 5.08795 5.99924 4.99506 5.99924C4.90216 5.99924 4.81026 5.98009 4.72509 5.94299C4.63992 5.90589 4.56332 5.85164 4.50005 5.78362V5.78462Z" fill="#FFFFFE"/>
</g>
</svg>
