<svg width="50" height="54" viewBox="0 0 50 54" fill="none" xmlns="http://www.w3.org/2000/svg">
<g opacity="0.8">
<path opacity="0.8" d="M39.8552 29.3075L15.7135 52.2438C14.9576 52.9464 13.9638 53.3369 12.9318 53.3369C11.8998 53.3369 10.906 52.9464 10.1501 52.2438C9.78728 51.9063 9.49789 51.4977 9.30001 51.0434C9.10212 50.5891 9 50.099 9 49.6034C9 49.1079 9.10212 48.6178 9.30001 48.1635C9.49789 47.7092 9.78728 47.3006 10.1501 46.9631L31.4862 26.6672L10.1501 6.37127C9.78728 6.03381 9.49789 5.6252 9.30001 5.17092C9.10213 4.71664 9 4.22646 9 3.73096C9 3.23545 9.10213 2.74524 9.30001 2.29095C9.49789 1.83667 9.78728 1.42807 10.1501 1.09061C10.9057 0.389534 11.8984 -2.66766e-05 12.9291 -2.66672e-05C13.9599 -2.66579e-05 14.9525 0.389534 15.7081 1.09061L39.8499 24.0269C40.2127 24.3643 40.5021 24.7729 40.7 25.2272C40.8979 25.6815 41 26.1717 41 26.6672C41 27.1627 40.8979 27.6529 40.7 28.1072C40.5021 28.5615 40.2127 28.9701 39.8499 29.3075L39.8552 29.3075Z" fill="#FFFFFE"/>
</g>
</svg>
