<svg width="44" height="44" viewBox="0 0 44 44" fill="none" xmlns="http://www.w3.org/2000/svg">
<g id="Big Arrow">
<path id="Path 115" d="M21.1623 26.7125L13.8854 19.0531C13.6625 18.8132 13.5386 18.4979 13.5386 18.1705C13.5386 17.8431 13.6625 17.5278 13.8854 17.288C13.9924 17.1729 14.1221 17.0811 14.2662 17.0183C14.4104 16.9555 14.5659 16.9231 14.7231 16.9231C14.8803 16.9231 15.0358 16.9555 15.1799 17.0183C15.3241 17.0811 15.4537 17.1729 15.5608 17.288L22 24.0572L28.4392 17.288C28.5463 17.1729 28.6759 17.0811 28.8201 17.0183C28.9642 16.9555 29.1197 16.9231 29.2769 16.9231C29.4341 16.9231 29.5897 16.9555 29.7338 17.0183C29.8779 17.0811 30.0076 17.1729 30.1146 17.288C30.337 17.5277 30.4606 17.8427 30.4606 18.1697C30.4606 18.4967 30.337 18.8116 30.1146 19.0514L22.8377 26.7108C22.7306 26.8259 22.601 26.9177 22.4569 26.9805C22.3127 27.0432 22.1572 27.0757 22 27.0757C21.8428 27.0757 21.6873 27.0432 21.5431 26.9805C21.399 26.9177 21.2694 26.8276 21.1623 26.7125Z" fill="white"/>
</g>
</svg>
