<svg width="15" height="10" viewBox="0 0 15 10" fill="none" xmlns="http://www.w3.org/2000/svg">
<g id="GEO">
<path id="Rectangle 83" d="M13 0H2C0.895431 0 0 0.89543 0 2V8C0 9.10457 0.89543 10 2 10H13C14.1046 10 15 9.10457 15 8V2C15 0.895431 14.1046 0 13 0Z" fill="#F0F0F0"/>
<g id="Group 137">
<path id="Path 182" d="M8.4375 0H6.5625V4.0625H0V5.9375H6.5625V10H8.4375V5.9375H15V4.0625H8.4375V0Z" fill="#D80027"/>
<path id="Path 183" d="M3.60961 1.70504V1.05316H2.95461V1.70504H2.30273V2.35691H2.95461V3.00754H3.60961V2.35754H4.26148V1.70566L3.60961 1.70504Z" fill="#D80027"/>
<path id="Path 184" d="M12.0474 1.70504V1.05316H11.3955V1.70504H10.7437V2.35691H11.3955V3.00754H12.0474V2.35754H12.6993V1.70566L12.0474 1.70504Z" fill="#D80027"/>
<path id="Path 185" d="M3.60961 7.64255V6.99068H2.95461V7.64255H2.30273V8.29443H2.95461V8.9463H3.60961V8.29443H4.26148V7.64255H3.60961Z" fill="#D80027"/>
<path id="Path 186" d="M12.0474 7.64255V6.99068H11.3955V7.64255H10.7437V8.29443H11.3955V8.9463H12.0474V8.29443H12.6993V7.64255H12.0474Z" fill="#D80027"/>
</g>
</g>
</svg>
