<svg width="62" height="41" viewBox="0 0 62 41" fill="none" xmlns="http://www.w3.org/2000/svg">
<g id="world">
<path id="Rectangle 83" d="M57.499 0H4C1.79086 0 0 1.79086 0 4V37C0 39.2091 1.79086 41 4 41H57.499C59.7081 41 61.499 39.2091 61.499 37V4C61.499 1.79086 59.7081 0 57.499 0Z" fill="#F0F0F0"/>
<g id="Group 137">
<path id="Path 182" d="M34.593 0H26.906V16.656H0V24.343H26.906V40.999H34.593V24.343H61.5V16.656H34.593V0Z" fill="#D80027"/>
<path id="Path 183" d="M14.79 6.99101V4.31702H12.116V6.99101H9.44202V9.66502H12.116V12.339H14.79V9.66502H17.464V6.99101H14.79Z" fill="#D80027"/>
<path id="Path 184" d="M49.383 6.99101V4.31702H46.709V6.99101H44.035V9.66502H46.709V12.339H49.383V9.66502H52.057V6.99101H49.383Z" fill="#D80027"/>
<path id="Path 185" d="M14.79 31.334V28.66H12.116V31.334H9.44202V34.008H12.116V36.682H14.79V34.008H17.464V31.334H14.79Z" fill="#D80027"/>
<path id="Path 186" d="M49.383 31.334V28.66H46.709V31.334H44.035V34.008H46.709V36.682H49.383V34.008H52.057V31.334H49.383Z" fill="#D80027"/>
</g>
</g>
</svg>
