<svg width="24" height="24" viewBox="0 0 24 24" fill="none" xmlns="http://www.w3.org/2000/svg">
<g id="Linkedin">
<g id="Linkedin_2">
<path id="Vector" d="M15.7368 8.3158C17.4119 8.3158 19.0183 8.98121 20.2028 10.1656C21.3872 11.3501 22.0526 12.9565 22.0526 14.6316V22H17.8421V14.6316C17.8421 14.0732 17.6203 13.5378 17.2255 13.1429C16.8307 12.7481 16.2952 12.5263 15.7368 12.5263C15.1785 12.5263 14.643 12.7481 14.2482 13.1429C13.8534 13.5378 13.6316 14.0732 13.6316 14.6316V22H9.42105V14.6316C9.42105 12.9565 10.0865 11.3501 11.2709 10.1656C12.4553 8.98121 14.0618 8.3158 15.7368 8.3158V8.3158Z" stroke="#094067" stroke-width="2" stroke-linecap="round" stroke-linejoin="round"/>
<path id="Vector_2" d="M5.21053 9.36841H1V22H5.21053V9.36841Z" stroke="#094067" stroke-width="2" stroke-linecap="round" stroke-linejoin="round"/>
<path id="Vector_3" d="M3.10526 6.21053C4.26797 6.21053 5.21053 5.26797 5.21053 4.10526C5.21053 2.94256 4.26797 2 3.10526 2C1.94256 2 1 2.94256 1 4.10526C1 5.26797 1.94256 6.21053 3.10526 6.21053Z" stroke="#094067" stroke-width="2" stroke-linecap="round" stroke-linejoin="round"/>
</g>
</g>
</svg>
