<svg width="52" height="40" viewBox="0 0 52 40" fill="none" xmlns="http://www.w3.org/2000/svg">
<g id="Group 21">
<path id="Path 80" d="M36.555 39.927L36.485 39.678C45.27 37.247 50.523 29.011 50.523 19.885C50.523 10.432 44.995 2.456 35.817 0.25L35.878 0C40.3341 1.084 44.3043 3.61639 47.166 7.2C50.0921 10.8442 51.6782 15.3825 51.659 20.056C51.6518 24.5619 50.1727 28.942 47.447 32.5299C44.7212 36.1178 40.898 38.717 36.559 39.932L36.555 39.927Z" fill="white"/>
<path id="Path 81" d="M19.322 26.626C18.1846 26.54 17.0466 26.44 15.908 26.326C15.5839 26.2962 15.2803 26.1544 15.0494 25.925C14.8186 25.6956 14.6748 25.3929 14.643 25.069C14.5416 23.9584 14.4683 22.8564 14.423 21.763C14.416 21.5749 14.447 21.3872 14.5142 21.2113C14.5815 21.0354 14.6835 20.8748 14.8142 20.7393C14.9449 20.6037 15.1016 20.4959 15.2749 20.4223C15.4483 20.3487 15.6346 20.3109 15.823 20.311H19.282C19.648 20.3109 19.9995 20.4542 20.2611 20.7101C20.5228 20.9659 20.6739 21.3141 20.682 21.68C20.706 22.83 20.749 23.986 20.811 25.148C20.8227 25.3463 20.7922 25.5449 20.7214 25.7304C20.6505 25.916 20.541 26.0844 20.4 26.2244C20.2591 26.3644 20.09 26.4727 19.904 26.5423C19.7179 26.6119 19.5192 26.6411 19.321 26.628L19.322 26.626Z" fill="#FFFFFE"/>
<path id="Path 82" d="M28.486 21.712V25.569C28.486 25.7543 28.4492 25.9379 28.3777 26.1089C28.3063 26.28 28.2015 26.4351 28.0696 26.5653C27.9377 26.6956 27.7812 26.7983 27.6093 26.8676C27.4373 26.9369 27.2534 26.9713 27.068 26.969C25.668 26.9483 24.2663 26.9053 22.863 26.84C22.5165 26.8247 22.188 26.6813 21.9411 26.4376C21.6943 26.1939 21.5467 25.8673 21.527 25.521C21.4523 24.2543 21.4017 22.9943 21.375 21.741C21.3707 21.5544 21.4038 21.3689 21.4722 21.1954C21.5407 21.0218 21.6431 20.8637 21.7736 20.7303C21.904 20.5968 22.0598 20.4909 22.2318 20.4185C22.4037 20.3462 22.5884 20.3089 22.775 20.309H27.089C27.4603 20.309 27.8164 20.4565 28.0789 20.719C28.3415 20.9816 28.489 21.3377 28.489 21.709L28.486 21.712Z" fill="#FFFFFE"/>
<g id="GLOBAL SHIPPING">
<path d="M10.6665 8.69638C10.4755 8.94695 10.2108 9.1367 9.8723 9.26564C9.53382 9.39457 9.1494 9.45904 8.71905 9.45904C8.2766 9.45904 7.88493 9.35808 7.54403 9.15617C7.20313 8.95425 6.9396 8.66597 6.75343 8.29133C6.56969 7.91426 6.47419 7.47515 6.46693 6.97401V6.55801C6.46693 5.75521 6.65793 5.12879 7.03993 4.67873C7.42194 4.22624 7.95504 4 8.63926 4C9.22677 4 9.69339 4.14596 10.0391 4.43789C10.3849 4.72982 10.5928 5.15068 10.6629 5.70048H9.7635C9.66196 5.06067 9.29326 4.74077 8.65739 4.74077C8.24638 4.74077 7.93328 4.89038 7.71811 5.1896C7.50535 5.4864 7.39534 5.92307 7.38809 6.49963V6.90833C7.38809 7.48245 7.50776 7.92886 7.74712 8.24754C7.98889 8.5638 8.32375 8.72192 8.75169 8.72192C9.22072 8.72192 9.55437 8.61488 9.75262 8.4008V7.36081H8.66465V6.66019H10.6665V8.69638Z" fill="white"/>
<path d="M12.6851 8.64894H15.0823V9.38606H11.7676V4.07298H12.6851V8.64894Z" fill="white"/>
<path d="M19.8607 6.86819C19.8607 7.38879 19.7712 7.84614 19.5923 8.24024C19.4134 8.63191 19.1571 8.93357 18.8234 9.14522C18.4922 9.35443 18.1102 9.45904 17.6774 9.45904C17.2495 9.45904 16.8675 9.35443 16.5314 9.14522C16.1978 8.93357 15.9391 8.63313 15.7554 8.24389C15.574 7.85466 15.4822 7.40582 15.4797 6.89738V6.59815C15.4797 6.07998 15.5704 5.62263 15.7517 5.22609C15.9355 4.82956 16.193 4.52669 16.5242 4.31747C16.8578 4.10582 17.2398 4 17.6702 4C18.1005 4 18.4813 4.10461 18.8126 4.31382C19.1462 4.5206 19.4037 4.81983 19.585 5.2115C19.7664 5.60073 19.8582 6.05444 19.8607 6.57261V6.86819ZM18.9431 6.59085C18.9431 6.00213 18.8319 5.55086 18.6095 5.23704C18.3895 4.92322 18.0764 4.76631 17.6702 4.76631C17.2737 4.76631 16.963 4.92322 16.7382 5.23704C16.5157 5.54843 16.4021 5.98997 16.3973 6.56166V6.86819C16.3973 7.45204 16.5097 7.90331 16.7345 8.222C16.9618 8.54069 17.2761 8.70003 17.6774 8.70003C18.0836 8.70003 18.3955 8.54434 18.6131 8.23295C18.8331 7.92156 18.9431 7.46664 18.9431 6.86819V6.59085Z" fill="white"/>
<path d="M20.8674 9.38606V4.07298H22.6771C23.2742 4.07298 23.7288 4.1934 24.0407 4.43424C24.3525 4.67508 24.5085 5.03391 24.5085 5.51072C24.5085 5.754 24.4432 5.97294 24.3127 6.16756C24.1821 6.36218 23.9911 6.51301 23.7397 6.62005C24.0249 6.6979 24.245 6.84508 24.3997 7.06159C24.5568 7.27567 24.6354 7.53354 24.6354 7.8352C24.6354 8.3339 24.4759 8.71706 24.1567 8.98466C23.84 9.25226 23.3855 9.38606 22.7931 9.38606H20.8674ZM21.7849 6.98861V8.64894H22.804C23.0917 8.64894 23.3166 8.57718 23.4785 8.43365C23.6405 8.29012 23.7215 8.09063 23.7215 7.8352C23.7215 7.28297 23.4411 7.00077 22.8802 6.98861H21.7849ZM21.7849 6.30988H22.6843C22.9696 6.30988 23.192 6.24541 23.3516 6.11647C23.5136 5.98511 23.5946 5.80022 23.5946 5.56181C23.5946 5.29908 23.5196 5.10932 23.3697 4.99255C23.2223 4.87578 22.9914 4.8174 22.6771 4.8174H21.7849V6.30988Z" fill="white"/>
<path d="M28.6015 8.14902H26.5561L26.1281 9.38606H25.1743L27.169 4.07298H27.9922L29.9904 9.38606H29.033L28.6015 8.14902ZM26.8136 7.4046H28.344L27.5788 5.20055L26.8136 7.4046Z" fill="white"/>
<path d="M31.6028 8.64894H34V9.38606H30.6853V4.07298H31.6028V8.64894Z" fill="white"/>
<path d="M3.0282 16.5586C3.0282 16.3251 2.946 16.145 2.78159 16.0185C2.61961 15.892 2.32585 15.7643 1.90033 15.6354C1.47481 15.5065 1.13633 15.3629 0.884888 15.2048C0.40376 14.9007 0.163197 14.5042 0.163197 14.0152C0.163197 13.587 0.336064 13.2343 0.681799 12.957C1.02995 12.6796 1.48086 12.541 2.03452 12.541C2.40201 12.541 2.72961 12.6091 3.01732 12.7453C3.30503 12.8815 3.53109 13.0762 3.69549 13.3292C3.8599 13.5797 3.9421 13.8583 3.9421 14.1648H3.0282C3.0282 13.8875 2.94116 13.671 2.76709 13.5153C2.59543 13.3571 2.34882 13.2781 2.02726 13.2781C1.72747 13.2781 1.49415 13.3425 1.32733 13.4715C1.16293 13.6004 1.08072 13.7804 1.08072 14.0115C1.08072 14.2062 1.17018 14.3692 1.34909 14.5005C1.528 14.6295 1.82297 14.756 2.23398 14.88C2.64499 15.0017 2.97501 15.1415 3.22404 15.2997C3.47306 15.4554 3.6556 15.6354 3.77165 15.8397C3.8877 16.0417 3.94573 16.2788 3.94573 16.5513C3.94573 16.9941 3.77649 17.3468 3.43801 17.6095C3.10194 17.8698 2.64499 18 2.06716 18C1.68516 18 1.33338 17.9295 1.01182 17.7884C0.692679 17.6448 0.443653 17.4478 0.264741 17.1972C0.088247 16.9466 0 16.6547 0 16.3214H0.917527C0.917527 16.6231 1.01665 16.8566 1.21491 17.022C1.41316 17.1875 1.69724 17.2702 2.06716 17.2702C2.3863 17.2702 2.62565 17.2057 2.78522 17.0768C2.94721 16.9454 3.0282 16.7727 3.0282 16.5586Z" fill="white"/>
<path d="M9.03601 17.927H8.12211V15.5661H5.7612V17.927H4.84367V12.6139H5.7612V14.8253H8.12211V12.6139H9.03601V17.927Z" fill="white"/>
<path d="M11.1851 17.927H10.2712V12.6139H11.1851V17.927Z" fill="white"/>
<path d="M13.3234 15.9529V17.927H12.4058V12.6139H14.4258C15.0158 12.6139 15.4836 12.7684 15.8293 13.0774C16.1775 13.3863 16.3516 13.795 16.3516 14.3035C16.3516 14.8241 16.1811 15.2291 15.8402 15.5186C15.5017 15.8081 15.0267 15.9529 14.415 15.9529H13.3234ZM13.3234 15.2121H14.4258C14.7522 15.2121 15.0013 15.1355 15.1729 14.9822C15.3446 14.8265 15.4304 14.6027 15.4304 14.3108C15.4304 14.0237 15.3434 13.795 15.1693 13.6247C14.9952 13.452 14.7559 13.3632 14.4512 13.3584H13.3234V15.2121Z" fill="white"/>
<path d="M18.167 15.9529V17.927H17.2495V12.6139H19.2695C19.8594 12.6139 20.3273 12.7684 20.673 13.0774C21.0212 13.3863 21.1952 13.795 21.1952 14.3035C21.1952 14.8241 21.0248 15.2291 20.6839 15.5186C20.3454 15.8081 19.8703 15.9529 19.2586 15.9529H18.167ZM18.167 15.2121H19.2695C19.5959 15.2121 19.8449 15.1355 20.0166 14.9822C20.1883 14.8265 20.2741 14.6027 20.2741 14.3108C20.2741 14.0237 20.187 13.795 20.013 13.6247C19.8389 13.452 19.5995 13.3632 19.2949 13.3584H18.167V15.2121Z" fill="white"/>
<path d="M23.0615 17.927H22.1476V12.6139H23.0615V17.927Z" fill="white"/>
<path d="M28.4709 17.927H27.5534L25.1997 14.1575V17.927H24.2822V12.6139H25.1997L27.5606 16.398V12.6139H28.4709V17.927Z" fill="white"/>
<path d="M33.6954 17.2373C33.5044 17.4879 33.2396 17.6777 32.9011 17.8066C32.5627 17.9355 32.1782 18 31.7479 18C31.3054 18 30.9138 17.899 30.5729 17.6971C30.232 17.4952 29.9684 17.2069 29.7823 16.8323C29.5985 16.4552 29.503 16.0161 29.4958 15.515V15.099C29.4958 14.2962 29.6868 13.6697 30.0688 13.2197C30.4508 12.7672 30.9839 12.541 31.6681 12.541C32.2556 12.541 32.7222 12.6869 33.068 12.9789C33.4137 13.2708 33.6216 13.6916 33.6917 14.2414H32.7923C32.6908 13.6016 32.3221 13.2817 31.6862 13.2817C31.2752 13.2817 30.9621 13.4313 30.747 13.7306C30.5342 14.0274 30.4242 14.464 30.4169 15.0406V15.4493C30.4169 16.0234 30.5366 16.4698 30.776 16.7885C31.0177 17.1048 31.3526 17.2629 31.7805 17.2629C32.2496 17.2629 32.5832 17.1558 32.7815 16.9418V15.9018H31.6935V15.2011H33.6954V17.2373Z" fill="white"/>
</g>
<path id="Path 83" d="M36.193 21.744C36.163 23 36.111 24.2647 36.037 25.538C36.0175 25.8847 35.8699 26.2117 35.6228 26.4556C35.3757 26.6995 35.0468 26.843 34.7 26.858C33.336 26.9174 31.9693 26.956 30.6 26.974C30.4146 26.9764 30.2307 26.942 30.0587 26.8727C29.8868 26.8034 29.7303 26.7006 29.5984 26.5704C29.4665 26.4402 29.3617 26.285 29.2903 26.114C29.2188 25.9429 29.182 25.7594 29.182 25.574V21.706C29.182 21.3347 29.3295 20.9786 29.592 20.7161C29.8546 20.4535 30.2107 20.306 30.582 20.306H34.791C34.9778 20.306 35.1628 20.3433 35.335 20.4158C35.5071 20.4884 35.663 20.5946 35.7935 20.7284C35.924 20.8621 36.0264 21.0206 36.0946 21.1945C36.1629 21.3684 36.1956 21.5543 36.191 21.741L36.193 21.744Z" fill="#FFFFFE"/>
<path id="Path 84" d="M35.783 29.092C35.7037 29.9767 35.6147 30.8653 35.516 31.758C35.4794 32.0898 35.3255 32.3975 35.082 32.6258C34.8385 32.8541 34.5214 32.9879 34.188 33.003C32.9994 33.0577 31.8067 33.0933 30.61 33.11C30.4247 33.1124 30.2407 33.0779 30.0687 33.0086C29.8968 32.9394 29.7403 32.8366 29.6084 32.7064C29.4765 32.5761 29.3718 32.421 29.3003 32.25C29.2288 32.0789 29.192 31.8954 29.192 31.71V29.075C29.192 28.7068 29.337 28.3534 29.5957 28.0914C29.8543 27.8293 30.2058 27.6797 30.574 27.675C31.8273 27.6597 33.0787 27.6264 34.328 27.575C34.5263 27.5667 34.7242 27.6006 34.9084 27.6746C35.0926 27.7486 35.259 27.8609 35.3965 28.004C35.534 28.1472 35.6395 28.318 35.706 28.505C35.7724 28.6921 35.7984 28.8912 35.782 29.089L35.783 29.092Z" fill="#FFFFFE"/>
<path id="Path 85" d="M41.405 34.975C41.388 35.052 41.37 35.131 41.353 35.208C41.2791 35.5339 41.0911 35.8226 40.823 36.022C39.8094 36.7815 38.7259 37.4428 37.587 37.997C37.3574 38.1081 37.1018 38.1544 36.8479 38.1309C36.5939 38.1073 36.3511 38.0149 36.1459 37.8635C35.9406 37.7121 35.7806 37.5074 35.6832 37.2717C35.5857 37.036 35.5546 36.7781 35.593 36.526C35.679 35.926 35.765 35.326 35.851 34.726C35.8956 34.4104 36.0465 34.1194 36.2789 33.9012C36.5113 33.683 36.8112 33.5506 37.129 33.526C38.053 33.4593 38.9753 33.3786 39.8959 33.284C40.1157 33.2622 40.3375 33.2927 40.5432 33.373C40.7489 33.4533 40.9326 33.5812 41.0795 33.746C41.2263 33.9109 41.3322 34.1083 41.3882 34.3219C41.4442 34.5354 41.449 34.7592 41.402 34.975H41.405Z" fill="#FFFFFE"/>
<path id="Path 86" d="M42.547 28.716C42.4243 29.5753 42.2863 30.442 42.133 31.316C42.0809 31.6147 41.9331 31.8885 41.712 32.0961C41.4909 32.3036 41.2084 32.4338 40.907 32.467C39.869 32.583 38.8276 32.683 37.7829 32.767C37.577 32.7845 37.3698 32.7561 37.1761 32.684C36.9825 32.6119 36.8072 32.4978 36.6628 32.3499C36.5185 32.202 36.4086 32.024 36.3412 31.8286C36.2738 31.6333 36.2506 31.4254 36.273 31.22C36.3657 30.3606 36.4486 29.505 36.522 28.653C36.5495 28.3218 36.6946 28.0113 36.931 27.7777C37.1673 27.5441 37.4794 27.4027 37.811 27.379C38.8836 27.305 39.954 27.219 41.022 27.121C41.2329 27.1001 41.4458 27.1275 41.6446 27.2009C41.8434 27.2743 42.0229 27.3919 42.1697 27.5448C42.3164 27.6977 42.4266 27.882 42.4917 28.0836C42.5569 28.2853 42.5754 28.4991 42.5459 28.709L42.547 28.716Z" fill="#FFFFFE"/>
<path id="Path 87" d="M43.348 33.782L43.326 33.805C43.2501 33.884 43.1507 33.9362 43.0426 33.9539C42.9346 33.9717 42.8237 33.9539 42.7265 33.9034C42.6294 33.8529 42.5512 33.7722 42.5037 33.6735C42.4562 33.5749 42.4419 33.4635 42.463 33.356V33.337C42.4841 33.2337 42.537 33.1395 42.6143 33.0678C42.6916 32.9961 42.7894 32.9503 42.894 32.937H42.911C43.0147 32.9225 43.1203 32.9406 43.2132 32.9887C43.3062 33.0368 43.3818 33.1126 43.4298 33.2056C43.4778 33.2986 43.4957 33.4042 43.481 33.5078C43.4664 33.6114 43.4199 33.7079 43.348 33.784V33.782Z" fill="#FFFFFE"/>
<path id="Path 88" d="M47.052 28.327C46.5376 29.4435 45.9216 30.5103 45.212 31.514C45.1157 31.6506 44.9927 31.7661 44.8503 31.8536C44.708 31.9411 44.5494 31.9988 44.384 32.023H44.362C44.1702 32.0515 43.9745 32.0342 43.7906 31.9726C43.6068 31.911 43.4402 31.8069 43.3043 31.6686C43.1684 31.5304 43.067 31.362 43.0086 31.1772C42.9502 30.9923 42.9363 30.7963 42.968 30.605C43.1234 29.6717 43.2633 28.742 43.388 27.816C43.4232 27.5459 43.5474 27.2953 43.741 27.1037C43.9346 26.9121 44.1866 26.7904 44.457 26.758C44.898 26.705 45.34 26.65 45.781 26.592C45.9986 26.5648 46.2195 26.5962 46.4209 26.6831C46.6223 26.7699 46.7968 26.909 46.9263 27.086C47.0559 27.263 47.1357 27.4713 47.1577 27.6896C47.1796 27.9078 47.1428 28.1278 47.051 28.327H47.052Z" fill="#FFFFFE"/>
<path id="Path 89" d="M43.192 21.763C43.1454 22.8637 43.0707 23.9734 42.968 25.092C42.9381 25.4166 42.7958 25.7205 42.5658 25.9514C42.3358 26.1824 42.0325 26.3258 41.708 26.357C40.5614 26.4703 39.413 26.5683 38.263 26.651C38.0644 26.6656 37.8649 26.6376 37.6779 26.5689C37.491 26.5002 37.3208 26.3924 37.1788 26.2527C37.0368 26.113 36.9263 25.9445 36.8546 25.7587C36.7829 25.5729 36.7517 25.3739 36.763 25.175C36.8297 23.999 36.876 22.8323 36.902 21.675C36.9104 21.3093 37.0615 20.9613 37.3232 20.7057C37.5848 20.45 37.9362 20.3069 38.302 20.307H41.793C41.9817 20.3062 42.1686 20.3436 42.3424 20.4171C42.5162 20.4905 42.6733 20.5985 42.8042 20.7344C42.935 20.8703 43.037 21.0314 43.1038 21.2079C43.1707 21.3843 43.201 21.5725 43.193 21.761L43.192 21.763Z" fill="#FFFFFE"/>
<path id="Path 90" d="M41.8499 19.613H38.3289C37.9601 19.613 37.6061 19.4674 37.3439 19.2079C37.0818 18.9483 36.9326 18.5958 36.9289 18.227C36.9169 17.047 36.8836 15.873 36.8289 14.705C36.8198 14.5073 36.8526 14.31 36.9253 14.126C36.998 13.942 37.1089 13.7754 37.2506 13.6374C37.3924 13.4993 37.5617 13.3929 37.7476 13.3251C37.9335 13.2573 38.1316 13.2296 38.3289 13.244C39.5023 13.336 40.6779 13.4433 41.8559 13.566C42.1848 13.5997 42.4911 13.7488 42.7206 13.9867C42.9501 14.2246 43.0881 14.5361 43.11 14.866C43.182 15.9653 43.2249 17.0753 43.2389 18.196C43.2417 18.3816 43.2076 18.5659 43.1385 18.7382C43.0693 18.9105 42.9667 19.0673 42.8364 19.1995C42.7061 19.3318 42.5508 19.4368 42.3796 19.5084C42.2084 19.5801 42.0246 19.617 41.839 19.617L41.8499 19.613Z" fill="#FFFFFE"/>
<path id="Path 94" d="M43.0822 6.95506H43.0682C42.9829 6.94333 42.9032 6.90538 42.8403 6.84645C42.7774 6.78751 42.7344 6.7105 42.7172 6.62606V6.60806C42.6981 6.51847 42.7089 6.4251 42.7478 6.34217C42.7867 6.25925 42.8516 6.19133 42.9327 6.14874C43.0138 6.10615 43.1067 6.09125 43.197 6.10629C43.2874 6.12133 43.3703 6.1655 43.4332 6.23206L43.4512 6.25106C43.5099 6.31487 43.5474 6.39527 43.5586 6.48124C43.5698 6.5672 43.554 6.65451 43.5136 6.7312C43.4732 6.80788 43.41 6.87018 43.3328 6.90954C43.2555 6.94891 43.168 6.96341 43.0822 6.95106V6.95506Z" fill="#FFFFFE"/>
<path id="Path 91" d="M48.789 21.8291C48.7026 22.775 48.5478 23.7134 48.326 24.637C48.2604 24.9106 48.1138 25.1581 47.9055 25.3472C47.6971 25.5363 47.4367 25.6582 47.158 25.697C46.5433 25.783 45.927 25.8664 45.309 25.947C45.1028 25.9728 44.8934 25.9523 44.696 25.887C44.4987 25.8218 44.3184 25.7134 44.1681 25.5698C44.0179 25.4262 43.9016 25.2509 43.8275 25.0567C43.7534 24.8625 43.7235 24.6542 43.74 24.447C43.818 23.5137 43.876 22.5851 43.914 21.6611C43.927 21.2985 44.0801 20.9551 44.3413 20.7033C44.6025 20.4514 44.9512 20.3108 45.314 20.311H47.395C47.5892 20.3103 47.7814 20.35 47.9593 20.4278C48.1373 20.5056 48.2971 20.6197 48.4284 20.7628C48.5597 20.9058 48.6597 21.0748 48.722 21.2587C48.7842 21.4427 48.8074 21.6376 48.79 21.831L48.789 21.8291Z" fill="#FFFFFE"/>
<path id="Path 92" d="M41.246 12.799C40.1287 12.6863 39.016 12.5893 37.908 12.508C37.5746 12.4825 37.2614 12.3385 37.025 12.102C36.7885 11.8656 36.6446 11.5524 36.619 11.219C36.5477 10.331 36.4647 9.44699 36.37 8.56699C36.3492 8.36055 36.3746 8.15208 36.4443 7.95665C36.514 7.76123 36.6264 7.58374 36.7731 7.43703C36.9198 7.29031 37.0972 7.17805 37.2927 7.10835C37.4881 7.03864 37.6966 7.01325 37.903 7.034C38.9857 7.13866 40.073 7.26099 41.165 7.40099C41.462 7.43813 41.7393 7.56946 41.9561 7.7757C42.173 7.98195 42.318 8.25227 42.37 8.547C42.5253 9.43366 42.6607 10.329 42.776 11.233C42.8027 11.442 42.7818 11.6544 42.715 11.8543C42.6481 12.0541 42.537 12.2363 42.3899 12.3872C42.2428 12.5382 42.0635 12.6539 41.8655 12.7259C41.6674 12.7979 41.4557 12.8243 41.246 12.803V12.799Z" fill="#FFFFFE"/>
<path id="Path 93" d="M40.068 6.56098C39.0953 6.44431 38.126 6.34431 37.16 6.26098H37.1189C36.816 6.22672 36.5335 6.09098 36.3175 5.87584C36.1014 5.6607 35.9645 5.3788 35.9289 5.07598C35.9129 4.97598 35.899 4.87598 35.885 4.77598C35.8183 4.33731 35.7496 3.90031 35.6789 3.46498C35.634 3.21023 35.6608 2.948 35.7563 2.70759C35.8518 2.46717 36.0122 2.25804 36.2196 2.10357C36.4271 1.94909 36.6735 1.85535 36.9312 1.83282C37.1889 1.81029 37.4478 1.85985 37.6789 1.97598C38.6377 2.44783 39.557 2.99593 40.428 3.61498C40.7913 3.87298 41.1446 4.14164 41.488 4.42098L41.5879 4.84098C41.6411 5.05976 41.6408 5.28815 41.5869 5.50676C41.533 5.72537 41.4271 5.92775 41.2784 6.09675C41.1296 6.26575 40.9422 6.39637 40.7322 6.47753C40.5222 6.55869 40.2957 6.588 40.0719 6.56297L40.068 6.56098Z" fill="#FFFFFE"/>
<path id="Path 95" d="M46.041 13.363C45.5417 13.2963 45.0417 13.2313 44.541 13.168C44.3014 13.1387 44.0788 13.0295 43.9089 12.858C43.7391 12.6865 43.632 12.4628 43.605 12.223C43.489 11.167 43.346 10.123 43.176 9.09098C43.1489 8.92332 43.162 8.75162 43.2141 8.58998C43.2662 8.42834 43.3559 8.28137 43.4759 8.16113C43.5958 8.04089 43.7426 7.95082 43.9041 7.89829C44.0656 7.84577 44.2373 7.8323 44.405 7.85898H44.424C44.5656 7.88154 44.7013 7.93217 44.8231 8.0079C44.9448 8.08363 45.0502 8.18294 45.133 8.29998C45.9328 9.41348 46.6151 10.6069 47.169 11.861C47.247 12.0362 47.2766 12.2291 47.2548 12.4197C47.233 12.6102 47.1606 12.7915 47.045 12.9446C46.9295 13.0977 46.7751 13.217 46.5978 13.2903C46.4206 13.3635 46.2269 13.3879 46.037 13.361L46.041 13.363Z" fill="#FFFFFE"/>
<path id="Path 96" d="M47.885 19.533C47.7269 19.5915 47.5596 19.6213 47.391 19.621H45.323C44.9757 19.6115 44.6443 19.4731 44.3934 19.2329C44.1424 18.9926 43.9897 18.6676 43.965 18.321V18.133C43.9523 17.2397 43.9217 16.35 43.873 15.464C43.8613 15.2586 43.895 15.0531 43.9718 14.8621C44.0486 14.6712 44.1665 14.4995 44.3172 14.3593C44.4679 14.2192 44.6476 14.1139 44.8435 14.0511C45.0395 13.9883 45.247 13.9695 45.451 13.996C46.023 14.072 46.593 14.152 47.164 14.234C47.4408 14.2742 47.6993 14.3963 47.906 14.5847C48.1128 14.7731 48.2584 15.0191 48.324 15.291C48.5451 16.2151 48.6998 17.1539 48.787 18.1C48.8148 18.4043 48.7417 18.7092 48.5791 18.9678C48.4164 19.2264 48.1733 19.4243 47.887 19.531L47.885 19.533Z" fill="#FFFFFE"/>
<path id="Path 97" d="M29.186 39.998H28.837C28.949 40.001 29.07 40.001 29.186 39.998Z" fill="white"/>
<path id="Path 98" d="M8.80199 20.31V19.959C8.79899 20.079 8.79899 20.195 8.80199 20.31Z" fill="white"/>
<path id="Path 99" d="M48.8759 19.961V20.308C48.8739 20.195 48.8759 20.079 48.8759 19.961Z" fill="white"/>
</g>
</svg>
