<svg width="27" height="32" viewBox="0 0 27 32" fill="none" xmlns="http://www.w3.org/2000/svg">
<g id="g876">
<path id="path890" d="M3.30488 0.000113483C1.48303 0.000113483 0 1.48421 0 3.30599V28.6941C0 30.5159 1.48303 32 3.30488 32H22.7184C24.5402 32 26.0233 30.516 26.0233 28.6941V7.81801C26.0233 7.81801 26.0752 7.20671 25.8099 6.61186C25.5611 6.05427 25.1557 5.66618 25.1557 5.66618C25.1547 5.66481 25.1537 5.66344 25.1527 5.66208L20.3361 0.937679C20.3335 0.934984 20.3308 0.932315 20.3281 0.929676C20.3281 0.929676 19.9169 0.5381 19.3073 0.276515C18.5895 -0.0314885 17.8497 0.00102526 17.8497 0.00102526L17.8607 0L3.30488 0.000113483Z" fill="#FF2116"/>
<path id="rect2684" d="M3.30488 1.08618H17.8608C17.8644 1.08622 17.8681 1.08622 17.8718 1.08618C17.8718 1.08618 18.4538 1.09182 18.8796 1.27452C19.2893 1.45035 19.5799 1.71652 19.5818 1.71831C19.5818 1.71831 19.5838 1.72036 19.5838 1.72036L24.3884 6.43374C24.3884 6.43374 24.6778 6.73934 24.8181 7.05385C24.9314 7.30769 24.9383 7.77212 24.9383 7.77212C24.9378 7.77979 24.9375 7.78747 24.9373 7.79515V28.6943C24.9373 29.9335 23.9575 30.9142 22.7184 30.9142H3.30488C2.06573 30.9142 1.08594 29.9335 1.08594 28.6943V3.30617C1.08594 2.06696 2.06573 1.08622 3.30488 1.08622V1.08618Z" fill="#F5F5F5"/>
<path id="path2697" d="M6.49764 19.0527C5.75048 18.3055 6.55885 17.2788 8.75264 16.1886L10.133 15.5026L10.6708 14.326C10.9665 13.6788 11.408 12.6229 11.6517 11.9795L12.0949 10.8096L11.7895 9.94389C11.414 8.87935 11.2801 7.27963 11.5183 6.7044C11.8411 5.92524 12.8982 6.00519 13.3167 6.8404C13.6436 7.4927 13.6102 8.674 13.2227 10.1638L12.9051 11.3852L13.1849 11.8601C13.3388 12.1214 13.7883 12.7417 14.1838 13.2386L14.9271 14.1632L15.8521 14.0425C18.7905 13.659 19.797 14.3107 19.797 15.2451C19.797 16.4244 17.4897 16.5218 15.5521 15.1609C15.1161 14.8547 14.8168 14.5505 14.8168 14.5505C14.8168 14.5505 13.6029 14.7976 13.0053 14.9587C12.3884 15.125 12.0807 15.2291 11.177 15.5341C11.177 15.5341 10.86 15.9946 10.6534 16.3293C9.88474 17.5746 8.98727 18.6066 8.34634 18.9822C7.62872 19.4028 6.87642 19.4314 6.49764 19.0527ZM7.67018 18.6338C8.09016 18.3742 8.94023 17.3688 9.52867 16.4357L9.76691 16.0579L8.68212 16.6033C7.00666 17.4457 6.24018 18.2397 6.63875 18.7199C6.86265 18.9897 7.1305 18.9673 7.67018 18.6338ZM18.5532 15.579C18.964 15.2913 18.9043 14.7114 18.4399 14.4777C18.0785 14.2957 17.7872 14.2583 16.8483 14.2722C16.2713 14.3115 15.3435 14.4278 15.1863 14.4632C15.1863 14.4632 15.696 14.8155 15.9222 14.9449C16.2235 15.117 16.9555 15.4364 17.49 15.6C18.0172 15.7613 18.3221 15.7443 18.5532 15.579V15.579ZM14.1773 13.7602C13.9287 13.4989 13.5059 12.9534 13.2379 12.5481C12.8873 12.0883 12.7115 11.7639 12.7115 11.7639C12.7115 11.7639 12.4552 12.5882 12.245 13.0842L11.5891 14.7053L11.3989 15.0731C11.3989 15.0731 12.4099 14.7416 12.9243 14.6072C13.4691 14.4649 14.5748 14.2475 14.5748 14.2475L14.1773 13.7602ZM12.7671 8.105C12.8305 7.57285 12.8574 7.0415 12.6864 6.77355C12.2122 6.25511 11.6398 6.68744 11.7368 7.91999C11.7694 8.33463 11.8724 9.04344 12.0101 9.48032L12.2605 10.2746L12.4367 9.67638C12.5336 9.34734 12.6823 8.64022 12.7671 8.105Z" fill="#FF2116"/>
<g id="g858">
<path id="path845" d="M7.76855 22.5125H8.98158C9.36918 22.5125 9.6838 22.5495 9.92545 22.6237C10.1671 22.6955 10.3705 22.857 10.5356 23.1082C10.7006 23.357 10.7832 23.6573 10.7832 24.009C10.7832 24.332 10.7162 24.6095 10.5822 24.8416C10.4482 25.0737 10.2676 25.2412 10.0403 25.344C9.81539 25.4469 9.46847 25.4984 8.99953 25.4984H8.57963V27.4112H7.76855V22.5125ZM8.57963 23.1405V24.8488H8.98158C9.34047 24.8488 9.5881 24.7818 9.72447 24.6478C9.86324 24.5138 9.93263 24.2961 9.93263 23.9946C9.93263 23.7697 9.88717 23.5879 9.79625 23.4491C9.70534 23.308 9.60485 23.2218 9.49479 23.1907C9.38712 23.1572 9.21606 23.1405 8.98158 23.1405L8.57963 23.1405Z" fill="#2C2C2C"/>
<path id="path847" d="M11.4038 22.5125H12.5056C13.0391 22.5125 13.465 22.607 13.7832 22.796C14.1038 22.985 14.3455 23.2661 14.5082 23.6393C14.6732 24.0126 14.7558 24.4265 14.7558 24.8811C14.7558 25.3596 14.6816 25.7867 14.5333 26.1623C14.3873 26.5355 14.1624 26.837 13.8586 27.0667C13.5571 27.2964 13.1265 27.4112 12.5666 27.4112H11.4038V22.5125ZM12.2149 23.162V26.7616H12.5522C13.0236 26.7616 13.3657 26.5989 13.5786 26.2735C13.7916 25.9458 13.8981 25.5091 13.8981 24.9636C13.8981 23.7626 13.4495 23.162 12.5522 23.162H12.2149Z" fill="#2C2C2C"/>
<path id="path849" d="M15.5347 22.5125H18.255V23.162H16.3457V24.6263H17.8746V25.2759H16.3457V27.4112H15.5347V22.5125Z" fill="#2C2C2C"/>
</g>
</g>
</svg>
