<svg width="6" height="10" viewBox="0 0 6 10" fill="none" xmlns="http://www.w3.org/2000/svg">
<path id="Right" d="M5.78462 5.49482L1.25862 9.79482C1.1169 9.92654 0.930594 9.99976 0.737118 9.99976C0.543641 9.99976 0.357332 9.92654 0.215618 9.79482C0.147595 9.73156 0.0933419 9.65495 0.0562439 9.56978C0.0191458 9.48461 -2.65346e-08 9.39272 -3.05952e-08 9.29982C-3.46558e-08 9.20692 0.0191458 9.11503 0.0562439 9.02986C0.0933419 8.94469 0.147595 8.86808 0.215618 8.80482L4.21562 4.99982L0.215618 1.19482C0.147595 1.13155 0.0933415 1.05495 0.0562435 0.96978C0.0191455 0.884613 -4.02452e-07 0.792717 -4.06513e-07 0.699821C-4.10574e-07 0.606926 0.0191455 0.515022 0.0562435 0.429855C0.0933415 0.344688 0.147595 0.268085 0.215618 0.204819C0.357276 0.0733843 0.543377 0.000350928 0.736618 0.00035092C0.929858 0.000350912 1.11596 0.0733842 1.25762 0.204819L5.78362 4.50482C5.85164 4.56809 5.90589 4.64469 5.94299 4.72986C5.98009 4.81502 5.99924 4.90692 5.99924 4.99982C5.99924 5.09271 5.98009 5.18462 5.94299 5.26978C5.90589 5.35495 5.85164 5.43155 5.78362 5.49482L5.78462 5.49482Z" fill="#5F6C7B"/>
</svg>
