<svg width="17" height="17" viewBox="0 0 17 17" fill="none" xmlns="http://www.w3.org/2000/svg">
<path d="M16.5981 6.50092C16.3978 5.88689 15.851 5.49013 15.2052 5.49013H11.0401L9.72844 1.50697C9.52682 0.894669 8.98117 0.5 8.33715 0.5C8.3351 0.5 8.33298 0.5 8.33093 0.500033C7.68427 0.502572 7.13885 0.902125 6.94143 1.51795L5.66805 5.49013H1.46826C0.820758 5.49013 0.273542 5.88822 0.0742049 6.50427C-0.125165 7.12032 0.0851128 7.76352 0.609927 8.14286L4.008 10.599L2.70003 14.5712C2.4976 15.1859 2.70437 15.83 3.22677 16.2121C3.48915 16.404 3.7903 16.5 4.09165 16.5C4.39026 16.5 4.68904 16.4057 4.95011 16.217L8.35408 13.7566L11.7176 16.2128C12.2394 16.5939 12.9152 16.5957 13.4392 16.2176C13.9632 15.8395 14.1743 15.1975 13.977 14.5822L12.7001 10.599L16.0693 8.13866C16.5909 7.75776 16.7985 7.11491 16.5981 6.50092ZM15.4932 7.34977L11.5547 10.2259L13.0468 14.8804C13.1472 15.1936 12.9349 15.3768 12.8675 15.4255C12.8001 15.4742 12.5593 15.6179 12.2936 15.4239L8.35698 12.5491L4.37786 15.4253C4.11083 15.6183 3.87069 15.4729 3.80342 15.4237C3.73618 15.3745 3.52477 15.1897 3.62785 14.8767L5.15928 10.2259L1.18215 7.35121C0.914956 7.15806 0.977929 6.88429 1.00359 6.805C1.02924 6.72572 1.13858 6.46695 1.46826 6.46695H6.3807L7.87166 1.81614C7.97218 1.50261 8.25158 1.47718 8.33484 1.47682H8.33653C8.42184 1.47682 8.69838 1.50186 8.80068 1.81249L10.3333 6.46695H15.2052C15.5341 6.46695 15.6438 6.72484 15.6695 6.80389C15.6953 6.88295 15.7588 7.15588 15.4932 7.34977Z" fill="#3DA9FC"/>
</svg>
