<svg width="19" height="12" viewBox="0 0 19 12" fill="none" xmlns="http://www.w3.org/2000/svg">
<g id="us">
<path id="Vector" d="M16.9387 0.000732422H1.37128C0.613921 0.000732422 0 0.614654 0 1.37202V10.6257C0 11.383 0.613921 11.997 1.37128 11.997H16.9387C17.696 11.997 18.31 11.383 18.31 10.6257V1.37202C18.31 0.614654 17.6961 0.000732422 16.9387 0.000732422Z" fill="#F5F5F5"/>
<g id="Group">
<path id="Vector_2" d="M0.0752563 0.922857H18.2344C18.0486 0.385823 17.5387 6.10352e-05 16.9386 6.10352e-05H1.37112C0.770893 6.10352e-05 0.26111 0.385823 0.0752563 0.922857Z" fill="#FF4B55"/>
<path id="Vector_3" d="M18.31 3.69116H0V4.61392H18.31V3.69116Z" fill="#FF4B55"/>
<path id="Vector_4" d="M18.31 1.84552H0V2.76828H18.31V1.84552Z" fill="#FF4B55"/>
<path id="Vector_5" d="M0 6.1439C0 6.31823 0.141366 6.4596 0.315704 6.4596H18.31V5.5368H0V6.1439Z" fill="#FF4B55"/>
<path id="Vector_6" d="M18.31 9.22809H0V10.1509H18.31V9.22809Z" fill="#FF4B55"/>
<path id="Vector_7" d="M18.2344 11.0735H0.0752563C0.26111 11.6106 0.770929 11.9963 1.37112 11.9963H16.9386C17.5388 11.9963 18.0486 11.6106 18.2344 11.0735Z" fill="#FF4B55"/>
<path id="Vector_8" d="M18.31 7.38245H0V8.30521H18.31V7.38245Z" fill="#FF4B55"/>
</g>
<path id="Vector_9" d="M0.315704 6.45953H8.20796C8.3823 6.45953 8.52366 6.31817 8.52366 6.14383V0.315704C8.52366 0.14133 8.3823 0 8.20796 0H1.37128C0.613922 3.57617e-05 0 0.613957 0 1.37132V6.14383C0 6.3182 0.141366 6.45953 0.315704 6.45953Z" fill="#41479B"/>
<g id="Group_2">
<path id="Vector_10" d="M0.886381 0.72476L0.956259 0.934323L1.17716 0.936004C1.20577 0.936254 1.21761 0.972731 1.19461 0.989718L1.01691 1.12093L1.08357 1.33153C1.09223 1.35878 1.06115 1.38138 1.03787 1.36472L0.858165 1.2363L0.678462 1.36475C0.655181 1.38142 0.624176 1.35881 0.632759 1.33156L0.699419 1.12096L0.521719 0.989754C0.498724 0.972731 0.510561 0.936254 0.53917 0.93604L0.76007 0.934359L0.829949 0.724795C0.838961 0.697616 0.877297 0.697616 0.886381 0.72476Z" fill="#F5F5F5"/>
<path id="Vector_11" d="M0.886228 1.8208L0.956107 2.03037L1.17701 2.03205C1.20562 2.0323 1.21745 2.06874 1.19446 2.08576L1.01676 2.21701L1.08342 2.42761C1.09207 2.45486 1.061 2.47746 1.03771 2.46079L0.858012 2.33237L0.67831 2.46083C0.655029 2.47746 0.624023 2.45489 0.632606 2.42764L0.699266 2.21704L0.521566 2.0858C0.498571 2.06877 0.510408 2.03233 0.539018 2.03208L0.759918 2.0304L0.829796 1.82084C0.838808 1.79369 0.877145 1.79369 0.886228 1.8208Z" fill="#F5F5F5"/>
<path id="Vector_12" d="M0.886228 2.91696L0.956107 3.12652L1.17701 3.1282C1.20562 3.12845 1.21745 3.1649 1.19446 3.18192L1.01676 3.31316L1.08342 3.52376C1.09207 3.55101 1.061 3.57362 1.03771 3.55695L0.858012 3.42853L0.67831 3.55699C0.655029 3.57362 0.624023 3.55109 0.632606 3.5238L0.699266 3.3132L0.521566 3.18195C0.498571 3.16493 0.510408 3.12849 0.539018 3.12824L0.759918 3.12656L0.829796 2.917C0.838808 2.88982 0.877145 2.88982 0.886228 2.91696Z" fill="#F5F5F5"/>
<path id="Vector_13" d="M0.886228 4.01327L0.956107 4.22284L1.17701 4.22452C1.20562 4.22477 1.21745 4.26124 1.19446 4.27823L1.01676 4.40948L1.08342 4.62008C1.09207 4.64733 1.061 4.66993 1.03771 4.65326L0.858012 4.52484L0.67831 4.6533C0.655029 4.66993 0.624023 4.64736 0.632606 4.62011L0.699266 4.40951L0.521566 4.27827C0.498571 4.26132 0.510408 4.2248 0.539018 4.22455L0.759918 4.22287L0.829796 4.01331C0.838808 3.98613 0.877145 3.98613 0.886228 4.01327Z" fill="#F5F5F5"/>
<path id="Vector_14" d="M0.886228 5.10956L0.956107 5.31912L1.17701 5.3208C1.20562 5.32105 1.21745 5.3575 1.19446 5.37452L1.01676 5.50576L1.08342 5.71636C1.09207 5.74361 1.061 5.76622 1.03771 5.74955L0.858012 5.62113L0.67831 5.74959C0.655029 5.76622 0.624023 5.74365 0.632606 5.7164L0.699266 5.5058L0.521566 5.37455C0.498571 5.35753 0.510408 5.32109 0.539018 5.32084L0.759918 5.31916L0.829796 5.1096C0.838808 5.08245 0.877145 5.08245 0.886228 5.10956Z" fill="#F5F5F5"/>
<path id="Vector_15" d="M1.73706 1.26203L1.80694 1.47159L2.02784 1.47327C2.05645 1.47352 2.06828 1.51 2.04529 1.52699L1.86759 1.65823L1.93425 1.86883C1.9429 1.89609 1.91183 1.91869 1.88855 1.90202L1.70884 1.77357L1.52914 1.90202C1.50586 1.91865 1.47485 1.89609 1.48344 1.86883L1.5501 1.65823L1.3724 1.52699C1.3494 1.50997 1.36124 1.47352 1.38985 1.47327L1.61075 1.47159L1.68063 1.26203C1.68964 1.23492 1.72801 1.23492 1.73706 1.26203Z" fill="#F5F5F5"/>
<path id="Vector_16" d="M1.73706 2.35819L1.80694 2.56775L2.02784 2.56943C2.05645 2.56968 2.06828 2.60616 2.04529 2.62315L1.86759 2.75439L1.93425 2.96499C1.9429 2.99224 1.91183 3.01484 1.88855 2.99818L1.70884 2.86972L1.52914 2.99818C1.50586 3.01481 1.47485 2.99228 1.48344 2.96499L1.5501 2.75439L1.3724 2.62315C1.3494 2.60619 1.36124 2.56968 1.38985 2.56943L1.61075 2.56775L1.68063 2.35819C1.68964 2.33104 1.72801 2.33104 1.73706 2.35819Z" fill="#F5F5F5"/>
<path id="Vector_17" d="M1.73706 3.4545L1.80694 3.66406L2.02784 3.66574C2.05645 3.666 2.06828 3.70244 2.04529 3.71946L1.86759 3.8507L1.93425 4.0613C1.9429 4.08856 1.91183 4.11116 1.88855 4.09449L1.70884 3.96604L1.52914 4.09449C1.50586 4.11112 1.47485 4.08856 1.48344 4.0613L1.5501 3.8507L1.3724 3.71946C1.3494 3.70244 1.36124 3.666 1.38985 3.66574L1.61075 3.66406L1.68063 3.4545C1.68964 3.42736 1.72801 3.42736 1.73706 3.4545Z" fill="#F5F5F5"/>
<path id="Vector_18" d="M1.73706 4.55079L1.80694 4.76035L2.02784 4.76203C2.05645 4.76228 2.06828 4.79872 2.04529 4.81575L1.86759 4.94699L1.93425 5.15759C1.9429 5.18484 1.91183 5.20744 1.88855 5.19078L1.70884 5.06232L1.52914 5.19078C1.50586 5.20744 1.47485 5.18484 1.48344 5.15759L1.5501 4.94699L1.3724 4.81575C1.3494 4.79872 1.36124 4.76228 1.38985 4.76203L1.61075 4.76035L1.68063 4.55079C1.68964 4.52368 1.72801 4.52368 1.73706 4.55079Z" fill="#F5F5F5"/>
<path id="Vector_19" d="M2.58825 0.72452L2.65813 0.934084L2.87903 0.935764C2.90764 0.936015 2.91948 0.972492 2.89648 0.989478L2.71878 1.12069L2.78544 1.33129C2.7941 1.35854 2.76302 1.38114 2.73974 1.36448L2.56004 1.23602L2.38034 1.36448C2.35705 1.38114 2.32605 1.35854 2.33463 1.33129L2.40129 1.12069L2.22359 0.989478C2.2006 0.972456 2.21243 0.935979 2.24104 0.935764L2.46194 0.934084L2.53182 0.72452C2.54083 0.697377 2.57921 0.697377 2.58825 0.72452Z" fill="#F5F5F5"/>
<path id="Vector_20" d="M2.58825 1.82081L2.65813 2.03037L2.87903 2.03205C2.90764 2.0323 2.91948 2.06874 2.89648 2.08577L2.71878 2.21701L2.78544 2.42761C2.7941 2.45486 2.76302 2.47746 2.73974 2.4608L2.56004 2.33234L2.38034 2.4608C2.35705 2.47743 2.32605 2.45486 2.33463 2.42761L2.40129 2.21701L2.22359 2.08577C2.2006 2.06874 2.21243 2.0323 2.24104 2.03205L2.46194 2.03037L2.53182 1.82081C2.54083 1.7937 2.57921 1.7937 2.58825 1.82081Z" fill="#F5F5F5"/>
<path id="Vector_21" d="M2.58825 2.91696L2.65813 3.12653L2.87903 3.12821C2.90764 3.12846 2.91948 3.1649 2.89648 3.18192L2.71878 3.31317L2.78544 3.52377C2.7941 3.55102 2.76302 3.57362 2.73974 3.55696L2.56004 3.4285L2.38034 3.55696C2.35705 3.57359 2.32605 3.55105 2.33463 3.52377L2.40129 3.31317L2.22359 3.18192C2.2006 3.1649 2.21243 3.12846 2.24104 3.12821L2.46194 3.12653L2.53182 2.91696C2.54083 2.88982 2.57921 2.88982 2.58825 2.91696Z" fill="#F5F5F5"/>
<path id="Vector_22" d="M2.58825 4.01328L2.65813 4.22284L2.87903 4.22452C2.90764 4.22477 2.91948 4.26125 2.89648 4.27824L2.71878 4.40948L2.78544 4.62008C2.7941 4.64733 2.76302 4.66993 2.73974 4.65327L2.56004 4.52481L2.38034 4.65327C2.35705 4.6699 2.32605 4.64733 2.33463 4.62008L2.40129 4.40948L2.22359 4.27824C2.2006 4.26128 2.21243 4.22477 2.24104 4.22452L2.46194 4.22284L2.53182 4.01328C2.54083 3.98613 2.57921 3.98613 2.58825 4.01328Z" fill="#F5F5F5"/>
<path id="Vector_23" d="M2.58825 5.10956L2.65813 5.31913L2.87903 5.32081C2.90764 5.32106 2.91948 5.3575 2.89648 5.37452L2.71878 5.50577L2.78544 5.71637C2.7941 5.74362 2.76302 5.76622 2.73974 5.74956L2.56004 5.6211L2.38034 5.74956C2.35705 5.76619 2.32605 5.74362 2.33463 5.71637L2.40129 5.50577L2.22359 5.37452C2.2006 5.3575 2.21243 5.32106 2.24104 5.32081L2.46194 5.31913L2.53182 5.10956C2.54083 5.08246 2.57921 5.08246 2.58825 5.10956Z" fill="#F5F5F5"/>
<path id="Vector_24" d="M3.43908 1.26203L3.50896 1.47159L3.72986 1.47327C3.75847 1.47352 3.77031 1.51 3.74731 1.52699L3.56961 1.65823L3.63627 1.86883C3.64493 1.89609 3.61385 1.91869 3.59057 1.90202L3.41087 1.77357L3.23117 1.90202C3.20789 1.91865 3.17688 1.89609 3.18546 1.86883L3.25212 1.65823L3.07442 1.52699C3.05143 1.50997 3.06326 1.47352 3.09187 1.47327L3.31277 1.47159L3.38265 1.26203C3.39163 1.23492 3.43004 1.23492 3.43908 1.26203Z" fill="#F5F5F5"/>
<path id="Vector_25" d="M3.43908 2.35819L3.50896 2.56775L3.72986 2.56943C3.75847 2.56968 3.77031 2.60616 3.74731 2.62315L3.56961 2.75439L3.63627 2.96499C3.64493 2.99224 3.61385 3.01484 3.59057 2.99818L3.41087 2.86972L3.23117 2.99818C3.20789 3.01481 3.17688 2.99228 3.18546 2.96499L3.25212 2.75439L3.07442 2.62315C3.05143 2.60619 3.06326 2.56968 3.09187 2.56943L3.31277 2.56775L3.38265 2.35819C3.39163 2.33104 3.43004 2.33104 3.43908 2.35819Z" fill="#F5F5F5"/>
<path id="Vector_26" d="M3.43908 3.4545L3.50896 3.66406L3.72986 3.66574C3.75847 3.666 3.77031 3.70244 3.74731 3.71946L3.56961 3.8507L3.63627 4.0613C3.64493 4.08856 3.61385 4.11116 3.59057 4.09449L3.41087 3.96604L3.23117 4.09449C3.20789 4.11112 3.17688 4.08856 3.18546 4.0613L3.25212 3.8507L3.07442 3.71946C3.05143 3.70244 3.06326 3.666 3.09187 3.66574L3.31277 3.66406L3.38265 3.4545C3.39163 3.42736 3.43004 3.42736 3.43908 3.4545Z" fill="#F5F5F5"/>
<path id="Vector_27" d="M3.43908 4.55079L3.50896 4.76035L3.72986 4.76203C3.75847 4.76228 3.77031 4.79872 3.74731 4.81575L3.56961 4.94699L3.63627 5.15759C3.64493 5.18484 3.61385 5.20744 3.59057 5.19078L3.41087 5.06232L3.23117 5.19078C3.20789 5.20744 3.17688 5.18484 3.18546 5.15759L3.25212 4.94699L3.07442 4.81575C3.05143 4.79872 3.06326 4.76228 3.09187 4.76203L3.31277 4.76035L3.38265 4.55079C3.39163 4.52368 3.43004 4.52368 3.43908 4.55079Z" fill="#F5F5F5"/>
<path id="Vector_28" d="M4.28995 0.724516L4.35983 0.934079L4.58073 0.93576C4.60934 0.93601 4.62118 0.972487 4.59818 0.989474L4.42048 1.12068L4.48714 1.33128C4.4958 1.35854 4.46472 1.38114 4.44144 1.36447L4.2617 1.23605L4.082 1.36451C4.05872 1.38117 4.02771 1.35857 4.03629 1.33132L4.10295 1.12072L3.92525 0.98951C3.90226 0.972487 3.91409 0.93601 3.9427 0.935796L4.1636 0.934115L4.23348 0.724551C4.24253 0.697372 4.2809 0.697372 4.28995 0.724516Z" fill="#F5F5F5"/>
<path id="Vector_29" d="M4.28995 1.82081L4.35983 2.03037L4.58073 2.03205C4.60934 2.0323 4.62118 2.06874 4.59818 2.08577L4.42048 2.21701L4.48714 2.42761C4.4958 2.45486 4.46472 2.47746 4.44144 2.4608L4.2617 2.33234L4.082 2.4608C4.05872 2.47743 4.02771 2.45486 4.03629 2.42761L4.10295 2.21701L3.92525 2.08577C3.90226 2.06874 3.91409 2.0323 3.9427 2.03205L4.1636 2.03037L4.23348 1.82081C4.24253 1.7937 4.2809 1.7937 4.28995 1.82081Z" fill="#F5F5F5"/>
<path id="Vector_30" d="M4.28995 2.91697L4.35983 3.12653L4.58073 3.12821C4.60934 3.12846 4.62118 3.1649 4.59818 3.18193L4.42048 3.31317L4.48714 3.52377C4.4958 3.55102 4.46472 3.57363 4.44144 3.55696L4.2617 3.42847L4.082 3.55692C4.05872 3.57355 4.02771 3.55099 4.03629 3.52374L4.10295 3.31314L3.92525 3.18189C3.90226 3.16487 3.91409 3.12843 3.9427 3.12818L4.1636 3.1265L4.23348 2.91693C4.24253 2.88983 4.2809 2.88982 4.28995 2.91697Z" fill="#F5F5F5"/>
<path id="Vector_31" d="M4.28995 4.01328L4.35983 4.22284L4.58073 4.22452C4.60934 4.22477 4.62118 4.26125 4.59818 4.27824L4.42048 4.40948L4.48714 4.62008C4.4958 4.64733 4.46472 4.66993 4.44144 4.65327L4.2617 4.52481L4.082 4.65327C4.05872 4.6699 4.02771 4.64733 4.03629 4.62008L4.10295 4.40948L3.92525 4.27824C3.90226 4.26128 3.91409 4.22477 3.9427 4.22452L4.1636 4.22284L4.23348 4.01328C4.24253 3.98613 4.2809 3.98613 4.28995 4.01328Z" fill="#F5F5F5"/>
<path id="Vector_32" d="M4.28995 5.10956L4.35983 5.31913L4.58073 5.32081C4.60934 5.32106 4.62118 5.3575 4.59818 5.37452L4.42048 5.50577L4.48714 5.71637C4.4958 5.74362 4.46472 5.76622 4.44144 5.74956L4.2617 5.6211L4.082 5.74956C4.05872 5.76619 4.02771 5.74362 4.03629 5.71637L4.10295 5.50577L3.92525 5.37452C3.90226 5.3575 3.91409 5.32106 3.9427 5.32081L4.1636 5.31913L4.23348 5.10956C4.24253 5.08246 4.2809 5.08246 4.28995 5.10956Z" fill="#F5F5F5"/>
<path id="Vector_33" d="M5.14074 1.26203L5.21062 1.47159L5.43152 1.47327C5.46013 1.47352 5.47197 1.51 5.44897 1.52699L5.27127 1.65823L5.33793 1.86883C5.34659 1.89609 5.31551 1.91869 5.29223 1.90202L5.11253 1.77357L4.93283 1.90202C4.90955 1.91865 4.87854 1.89609 4.88712 1.86883L4.95378 1.65823L4.77608 1.52699C4.75309 1.50997 4.76493 1.47352 4.79353 1.47327L5.01443 1.47159L5.08431 1.26203C5.09336 1.23492 5.1317 1.23492 5.14074 1.26203Z" fill="#F5F5F5"/>
<path id="Vector_34" d="M5.14074 2.35819L5.21062 2.56775L5.43152 2.56943C5.46013 2.56968 5.47197 2.60616 5.44897 2.62315L5.27127 2.75439L5.33793 2.96499C5.34659 2.99224 5.31551 3.01484 5.29223 2.99818L5.11253 2.86972L4.93283 2.99818C4.90955 3.01481 4.87854 2.99228 4.88712 2.96499L4.95378 2.75439L4.77608 2.62315C4.75309 2.60619 4.76493 2.56968 4.79353 2.56943L5.01443 2.56775L5.08431 2.35819C5.09336 2.33104 5.1317 2.33104 5.14074 2.35819Z" fill="#F5F5F5"/>
<path id="Vector_35" d="M5.14074 3.4545L5.21062 3.66406L5.43152 3.66574C5.46013 3.666 5.47197 3.70244 5.44897 3.71946L5.27127 3.8507L5.33793 4.0613C5.34659 4.08856 5.31551 4.11116 5.29223 4.09449L5.11253 3.96604L4.93283 4.09449C4.90955 4.11112 4.87854 4.08856 4.88712 4.0613L4.95378 3.8507L4.77608 3.71946C4.75309 3.70244 4.76493 3.666 4.79353 3.66574L5.01443 3.66406L5.08431 3.4545C5.09336 3.42736 5.1317 3.42736 5.14074 3.4545Z" fill="#F5F5F5"/>
<path id="Vector_36" d="M5.14074 4.55079L5.21062 4.76035L5.43152 4.76203C5.46013 4.76228 5.47197 4.79872 5.44897 4.81575L5.27127 4.94699L5.33793 5.15759C5.34659 5.18484 5.31551 5.20744 5.29223 5.19078L5.11253 5.06232L4.93283 5.19078C4.90955 5.20744 4.87854 5.18484 4.88712 5.15759L4.95378 4.94699L4.77608 4.81575C4.75309 4.79872 4.76493 4.76228 4.79353 4.76203L5.01443 4.76035L5.08431 4.55079C5.09336 4.52368 5.1317 4.52368 5.14074 4.55079Z" fill="#F5F5F5"/>
<path id="Vector_37" d="M5.99157 0.72452L6.06145 0.934084L6.28235 0.935764C6.31096 0.936015 6.3228 0.972492 6.2998 0.989478L6.12211 1.12069L6.18876 1.33129C6.19742 1.35854 6.16634 1.38114 6.14306 1.36448L5.96336 1.23602L5.78366 1.36448C5.76038 1.38114 5.72937 1.35854 5.73795 1.33129L5.80461 1.12069L5.62691 0.989478C5.60392 0.972456 5.61575 0.935979 5.64436 0.935764L5.86526 0.934084L5.93514 0.72452C5.94412 0.697377 5.98253 0.697377 5.99157 0.72452Z" fill="#F5F5F5"/>
<path id="Vector_38" d="M5.99157 1.82081L6.06145 2.03037L6.28235 2.03205C6.31096 2.0323 6.3228 2.06874 6.2998 2.08577L6.12211 2.21701L6.18876 2.42761C6.19742 2.45486 6.16634 2.47746 6.14306 2.4608L5.96336 2.33234L5.78366 2.4608C5.76038 2.47743 5.72937 2.45486 5.73795 2.42761L5.80461 2.21701L5.62691 2.08577C5.60392 2.06874 5.61575 2.0323 5.64436 2.03205L5.86526 2.03037L5.93514 1.82081C5.94412 1.7937 5.98253 1.7937 5.99157 1.82081Z" fill="#F5F5F5"/>
<path id="Vector_39" d="M5.99157 2.91696L6.06145 3.12653L6.28235 3.12821C6.31096 3.12846 6.3228 3.1649 6.2998 3.18192L6.12211 3.31317L6.18876 3.52377C6.19742 3.55102 6.16634 3.57362 6.14306 3.55696L5.96336 3.4285L5.78366 3.55696C5.76038 3.57359 5.72937 3.55105 5.73795 3.52377L5.80461 3.31317L5.62691 3.18192C5.60392 3.1649 5.61575 3.12846 5.64436 3.12821L5.86526 3.12653L5.93514 2.91696C5.94412 2.88982 5.98253 2.88982 5.99157 2.91696Z" fill="#F5F5F5"/>
<path id="Vector_40" d="M5.99157 4.01328L6.06145 4.22284L6.28235 4.22452C6.31096 4.22477 6.3228 4.26125 6.2998 4.27824L6.12211 4.40948L6.18876 4.62008C6.19742 4.64733 6.16634 4.66993 6.14306 4.65327L5.96336 4.52481L5.78366 4.65327C5.76038 4.6699 5.72937 4.64733 5.73795 4.62008L5.80461 4.40948L5.62691 4.27824C5.60392 4.26128 5.61575 4.22477 5.64436 4.22452L5.86526 4.22284L5.93514 4.01328C5.94412 3.98613 5.98253 3.98613 5.99157 4.01328Z" fill="#F5F5F5"/>
<path id="Vector_41" d="M5.99157 5.10956L6.06145 5.31913L6.28235 5.32081C6.31096 5.32106 6.3228 5.3575 6.2998 5.37452L6.12211 5.50577L6.18876 5.71637C6.19742 5.74362 6.16634 5.76622 6.14306 5.74956L5.96336 5.6211L5.78366 5.74956C5.76038 5.76619 5.72937 5.74362 5.73795 5.71637L5.80461 5.50577L5.62691 5.37452C5.60392 5.3575 5.61575 5.32106 5.64436 5.32081L5.86526 5.31913L5.93514 5.10956C5.94412 5.08246 5.98253 5.08246 5.99157 5.10956Z" fill="#F5F5F5"/>
<path id="Vector_42" d="M6.8424 1.26203L6.91228 1.47159L7.13318 1.47327C7.16179 1.47352 7.17363 1.51 7.15063 1.52699L6.97294 1.65823L7.03959 1.86883C7.04825 1.89609 7.01717 1.91869 6.99389 1.90202L6.81419 1.77357L6.63449 1.90202C6.61121 1.91865 6.5802 1.89609 6.58878 1.86883L6.65544 1.65823L6.47774 1.52699C6.45475 1.50997 6.46658 1.47352 6.49519 1.47327L6.71609 1.47159L6.78597 1.26203C6.79498 1.23492 6.83336 1.23492 6.8424 1.26203Z" fill="#F5F5F5"/>
<path id="Vector_43" d="M6.8424 2.35819L6.91228 2.56775L7.13318 2.56943C7.16179 2.56968 7.17363 2.60616 7.15063 2.62315L6.97294 2.75439L7.03959 2.96499C7.04825 2.99224 7.01717 3.01484 6.99389 2.99818L6.81419 2.86972L6.63449 2.99818C6.61121 3.01481 6.5802 2.99228 6.58878 2.96499L6.65544 2.75439L6.47774 2.62315C6.45475 2.60619 6.46658 2.56968 6.49519 2.56943L6.71609 2.56775L6.78597 2.35819C6.79498 2.33104 6.83336 2.33104 6.8424 2.35819Z" fill="#F5F5F5"/>
<path id="Vector_44" d="M6.8424 3.4545L6.91228 3.66406L7.13318 3.66574C7.16179 3.666 7.17363 3.70244 7.15063 3.71946L6.97294 3.8507L7.03959 4.0613C7.04825 4.08856 7.01717 4.11116 6.99389 4.09449L6.81419 3.96604L6.63449 4.09449C6.61121 4.11112 6.5802 4.08856 6.58878 4.0613L6.65544 3.8507L6.47774 3.71946C6.45475 3.70244 6.46658 3.666 6.49519 3.66574L6.71609 3.66406L6.78597 3.4545C6.79498 3.42736 6.83336 3.42736 6.8424 3.4545Z" fill="#F5F5F5"/>
<path id="Vector_45" d="M6.8424 4.55079L6.91228 4.76035L7.13318 4.76203C7.16179 4.76228 7.17363 4.79872 7.15063 4.81575L6.97294 4.94699L7.03959 5.15759C7.04825 5.18484 7.01717 5.20744 6.99389 5.19078L6.81419 5.06232L6.63449 5.19078C6.61121 5.20744 6.5802 5.18484 6.58878 5.15759L6.65544 4.94699L6.47774 4.81575C6.45475 4.79872 6.46658 4.76228 6.49519 4.76203L6.71609 4.76035L6.78597 4.55079C6.79498 4.52368 6.83336 4.52368 6.8424 4.55079Z" fill="#F5F5F5"/>
<path id="Vector_46" d="M7.69363 0.72452L7.76351 0.934084L7.98441 0.935764C8.01302 0.936015 8.02486 0.972492 8.00186 0.989478L7.82416 1.12069L7.89082 1.33129C7.89948 1.35854 7.8684 1.38114 7.84512 1.36448L7.66542 1.23602L7.48571 1.36448C7.46243 1.38114 7.43143 1.35854 7.44001 1.33129L7.50667 1.12069L7.32897 0.989478C7.30597 0.972456 7.31781 0.935979 7.34642 0.935764L7.56732 0.934084L7.6372 0.72452C7.64621 0.697377 7.68455 0.697377 7.69363 0.72452Z" fill="#F5F5F5"/>
<path id="Vector_47" d="M7.69363 1.82081L7.76351 2.03037L7.98441 2.03205C8.01302 2.0323 8.02486 2.06874 8.00186 2.08577L7.82416 2.21701L7.89082 2.42761C7.89948 2.45486 7.8684 2.47746 7.84512 2.4608L7.66542 2.33234L7.48571 2.4608C7.46243 2.47743 7.43143 2.45486 7.44001 2.42761L7.50667 2.21701L7.32897 2.08577C7.30597 2.06874 7.31781 2.0323 7.34642 2.03205L7.56732 2.03037L7.6372 1.82081C7.64621 1.7937 7.68455 1.7937 7.69363 1.82081Z" fill="#F5F5F5"/>
<path id="Vector_48" d="M7.69363 2.91696L7.76351 3.12653L7.98441 3.12821C8.01302 3.12846 8.02486 3.1649 8.00186 3.18192L7.82416 3.31317L7.89082 3.52377C7.89948 3.55102 7.8684 3.57362 7.84512 3.55696L7.66542 3.4285L7.48571 3.55696C7.46243 3.57359 7.43143 3.55105 7.44001 3.52377L7.50667 3.31317L7.32897 3.18192C7.30597 3.1649 7.31781 3.12846 7.34642 3.12821L7.56732 3.12653L7.6372 2.91696C7.64621 2.88982 7.68455 2.88982 7.69363 2.91696Z" fill="#F5F5F5"/>
<path id="Vector_49" d="M7.69363 4.01328L7.76351 4.22284L7.98441 4.22452C8.01302 4.22477 8.02486 4.26125 8.00186 4.27824L7.82416 4.40948L7.89082 4.62008C7.89948 4.64733 7.8684 4.66993 7.84512 4.65327L7.66542 4.52481L7.48571 4.65327C7.46243 4.6699 7.43143 4.64733 7.44001 4.62008L7.50667 4.40948L7.32897 4.27824C7.30597 4.26128 7.31781 4.22477 7.34642 4.22452L7.56732 4.22284L7.6372 4.01328C7.64621 3.98613 7.68455 3.98613 7.69363 4.01328Z" fill="#F5F5F5"/>
<path id="Vector_50" d="M7.69363 5.10956L7.76351 5.31913L7.98441 5.32081C8.01302 5.32106 8.02486 5.3575 8.00186 5.37452L7.82416 5.50577L7.89082 5.71637C7.89948 5.74362 7.8684 5.76622 7.84512 5.74956L7.66542 5.6211L7.48571 5.74956C7.46243 5.76619 7.43143 5.74362 7.44001 5.71637L7.50667 5.50577L7.32897 5.37452C7.30597 5.3575 7.31781 5.32106 7.34642 5.32081L7.56732 5.31913L7.6372 5.10956C7.64621 5.08246 7.68455 5.08246 7.69363 5.10956Z" fill="#F5F5F5"/>
</g>
</g>
</svg>
