<svg width="42" height="42" viewBox="0 0 42 42" fill="none" xmlns="http://www.w3.org/2000/svg">
<path d="M24.2067 12C24.0655 12 23.9219 12.0383 23.7903 12.1268L15.3073 17.6713H11.3829C11.1723 17.6713 11 17.8436 11 18.0542V24.9458C11 25.1564 11.1723 25.3287 11.3829 25.3287H15.3073L23.7903 30.8732C23.9219 30.9593 24.0679 31 24.2067 31C24.6063 31 24.9748 30.6817 24.9748 30.2319V12.7681C24.9748 12.3183 24.6063 12 24.2067 12ZM23.2519 28.4635L16.2501 23.8858L15.8194 23.6058H12.7229V19.3942H15.8194L16.2477 19.1142L23.2519 14.5365V28.4635ZM31.5793 20.6385H28.5164C28.3058 20.6385 28.1335 20.8108 28.1335 21.0214V21.9786C28.1335 22.1892 28.3058 22.3615 28.5164 22.3615H31.5793C31.7899 22.3615 31.9622 22.1892 31.9622 21.9786V21.0214C31.9622 20.8108 31.7899 20.6385 31.5793 20.6385ZM30.5767 26.9033L27.9373 25.379C27.8939 25.3541 27.8461 25.3381 27.7965 25.3318C27.747 25.3254 27.6966 25.3289 27.6484 25.342C27.6002 25.3551 27.555 25.3776 27.5155 25.4082C27.476 25.4387 27.4428 25.4768 27.418 25.5202L26.9418 26.3457C26.8365 26.5276 26.8987 26.7621 27.0806 26.8674L29.72 28.3917C29.7634 28.4165 29.8112 28.4326 29.8608 28.4389C29.9104 28.4452 29.9607 28.4418 30.0089 28.4287C30.0571 28.4155 30.1023 28.3931 30.1418 28.3625C30.1813 28.3319 30.2145 28.2939 30.2393 28.2505L30.7155 27.4249C30.8208 27.2431 30.7562 27.0086 30.5767 26.9033ZM27.4156 17.4798C27.4404 17.5232 27.4736 17.5613 27.5131 17.5918C27.5526 17.6224 27.5978 17.6449 27.646 17.658C27.6942 17.6711 27.7446 17.6746 27.7941 17.6682C27.8437 17.6619 27.8915 17.6459 27.9349 17.621L30.5743 16.0967C30.7562 15.9914 30.8184 15.7569 30.7131 15.5751L30.2393 14.7519C30.2145 14.7085 30.1813 14.6705 30.1418 14.6399C30.1023 14.6093 30.0571 14.5869 30.0089 14.5737C29.9607 14.5606 29.9104 14.5571 29.8608 14.5635C29.8112 14.5698 29.7634 14.5859 29.72 14.6107L27.0806 16.135C26.9932 16.186 26.9295 16.2694 26.9035 16.3672C26.8775 16.465 26.8913 16.569 26.9418 16.6567L27.4156 17.4798Z" fill="#5F6C7B"/>
</svg>
